# File created by Blade
# Date/Time:  Fri Jan 16 17:19:08 2015
# Frame Rate: 120.000 fps
#------------------------------------------------------
:FULLY-SPECIFIED
:DEGREES
3673
root -5.271182 35.190474 -9.206771 0.916612 -3.620959 -6.367596
Spine -6.446323 -4.044050 6.440966
Head 11.980490 -10.971945 -4.396775
LeftShoulder -23.152265 13.131790 -11.400103
LeftArm 12.975104 -17.991149 -77.660487
LeftForeArm 15.179592 0.000000 10.550878
LeftHand -0.112306 -0.000000 -3.728698
LeftHandThumb1 -26.253704 0.000000 33.147579
RightShoulder -15.016309 3.632105 -6.178517
RightArm -2.425912 -8.453157 31.414063
RightForeArm 35.523895 -0.000000 107.620677
RightHand 10.252009 -0.000000 21.300819
RightHandThumb1 -24.326973 -0.000000 -32.862282
LeftUpLeg 10.030101 12.694662 6.760301
LeftLeg -9.375103 -0.000000 0.000000
LeftFoot -16.328349 28.513501 -7.612075
LeftToeBase 22.864264 -0.000000 -0.000000
RightUpLeg 7.009539 -5.490806 4.494021
RightLeg -4.569154 -0.000000 0.000000
RightFoot -5.444718 -28.371938 5.226771
RightToeBase 13.372434 -0.000000 -0.000000
3674
root -5.271241 35.190362 -9.207901 0.910523 -3.645173 -6.369308
Spine -6.413269 -3.990747 6.425486
Head 11.951758 -11.013374 -4.370396
LeftShoulder -23.102140 13.117045 -11.367425
LeftArm 12.986962 -17.912509 -77.651395
LeftForeArm 15.009991 0.000000 10.577776
LeftHand -0.131282 -0.000000 -3.676136
LeftHandThumb1 -26.253704 0.000000 33.147579
RightShoulder -15.010310 3.600005 -6.086251
RightArm -2.236526 -8.926263 31.403457
RightForeArm 35.280810 0.000000 107.522611
RightHand 10.116335 -0.000000 21.331211
RightHandThumb1 -24.326973 -0.000000 -32.862282
LeftUpLeg 10.039582 12.732789 6.765435
LeftLeg -9.374887 -0.000000 0.000000
LeftFoot -16.325628 28.509041 -7.600129
LeftToeBase 22.865868 -0.000000 -0.000000
RightUpLeg 7.012892 -5.494239 4.493876
RightLeg -4.570424 -0.000000 0.000000
RightFoot -5.444252 -28.357432 5.239727
RightToeBase 13.343998 -0.000000 -0.000000
3675
root -5.269888 35.190147 -9.207515 0.900252 -3.669985 -6.371214
Spine -6.379462 -3.955050 6.425637
Head 11.904378 -11.033000 -4.390055
LeftShoulder -23.033921 13.077102 -11.335264
LeftArm 12.925178 -17.864821 -77.623737
LeftForeArm 14.948572 -0.000000 10.656196
LeftHand -0.174006 -0.000000 -3.692388
LeftHandThumb1 -26.253704 0.000000 33.147579
RightShoulder -14.987249 3.471574 -5.981690
RightArm -2.021483 -9.160731 31.410085
RightForeArm 35.102560 -0.000000 107.404759
RightHand 10.021232 -0.000000 21.574292
RightHandThumb1 -24.326973 -0.000000 -32.862282
LeftUpLeg 10.057501 12.741191 6.758425
LeftLeg -9.383417 -0.000000 0.000000
LeftFoot -16.371699 28.563850 -7.688582
LeftToeBase 22.878537 -0.000000 -0.000000
RightUpLeg 7.034427 -5.457337 4.490706
RightLeg -4.592627 -0.000000 0.000000
RightFoot -5.417505 -28.353717 5.224094
RightToeBase 13.331640 -0.000000 -0.000000
3676
root -5.268637 35.190500 -9.209627 0.902355 -3.701326 -6.378523
Spine -6.347159 -3.915762 6.433270
Head 11.856681 -11.049680 -4.386262
LeftShoulder -23.015592 13.053662 -11.327705
LeftArm 12.950846 -17.817943 -77.610336
LeftForeArm 14.894365 -0.000000 10.660592
LeftHand -0.155924 -0.000000 -3.695054
LeftHandThumb1 -26.253704 0.000000 33.147579
RightShoulder -14.953910 3.466955 -5.902578
RightArm -1.920023 -9.374632 31.448468
RightForeArm 34.885227 -0.000000 107.299514
RightHand 9.961006 -0.000000 21.627890
RightHandThumb1 -24.326973 -0.000000 -32.862282
LeftUpLeg 10.061338 12.767063 6.763466
LeftLeg -9.386171 -0.000000 0.000000
LeftFoot -16.367033 28.563223 -7.672569
LeftToeBase 22.907850 -0.000000 -0.000000
RightUpLeg 7.028257 -5.446346 4.493840
RightLeg -4.594925 -0.000000 0.000000
RightFoot -5.410934 -28.338362 5.223384
RightToeBase 13.355549 -0.000000 -0.000000
3677
root -5.268019 35.190434 -9.209716 0.908139 -3.716737 -6.382789
Spine -6.334903 -3.879049 6.425472
Head 11.829957 -11.061523 -4.364166
LeftShoulder -23.001423 13.081814 -11.310655
LeftArm 13.010516 -17.813284 -77.639462
LeftForeArm 14.923564 -0.000000 10.688617
LeftHand -0.150374 0.000000 -3.693093
LeftHandThumb1 -26.253704 0.000000 33.147579
RightShoulder -14.942794 3.436687 -5.809409
RightArm -1.834782 -9.434531 31.498138
RightForeArm 34.782854 -0.000000 107.161615
RightHand 9.915669 -0.000000 21.809141
RightHandThumb1 -24.326973 -0.000000 -32.862282
LeftUpLeg 10.066620 12.769775 6.770613
LeftLeg -9.393634 -0.000000 0.000000
LeftFoot -16.317404 28.556755 -7.593807
LeftToeBase 22.849351 -0.000000 -0.000000
RightUpLeg 7.024860 -5.447819 4.496377
RightLeg -4.600560 -0.000000 0.000000
RightFoot -5.403266 -28.320253 5.234554
RightToeBase 13.328733 -0.000000 -0.000000
3678
root -5.267178 35.190341 -9.215508 0.948179 -3.706493 -6.403370
Spine -6.343944 -3.878277 6.449512
Head 11.780320 -11.054926 -4.345455
LeftShoulder -22.985217 13.058705 -11.292020
LeftArm 13.024782 -17.796614 -77.643908
LeftForeArm 14.960362 -0.000000 10.701596
LeftHand -0.092956 0.000000 -3.614663
LeftHandThumb1 -26.253704 0.000000 33.147579
RightShoulder -14.924476 3.432397 -5.735524
RightArm -1.778773 -9.384672 31.585565
RightForeArm 34.727993 -0.000000 107.013747
RightHand 9.860968 -0.000000 21.944929
RightHandThumb1 -24.326973 -0.000000 -32.862282
LeftUpLeg 10.021505 12.819568 6.775596
LeftLeg -9.420455 -0.000000 0.000000
LeftFoot -16.342425 28.563708 -7.623930
LeftToeBase 22.912430 -0.000000 -0.000000
RightUpLeg 6.975938 -5.462584 4.520335
RightLeg -4.601784 -0.000000 0.000000
RightFoot -5.385629 -28.314680 5.228254
RightToeBase 13.340537 -0.000000 -0.000000
3679
root -5.264379 35.190139 -9.218093 0.976353 -3.721089 -6.410265
Spine -6.349863 -3.846527 6.465420
Head 11.748737 -11.050372 -4.349592
LeftShoulder -22.964756 13.063056 -11.285123
LeftArm 13.052671 -17.777359 -77.654696
LeftForeArm 14.938379 -0.000000 10.712273
LeftHand -0.065229 -0.000000 -3.612556
LeftHandThumb1 -26.253704 0.000000 33.147579
RightShoulder -14.885304 3.486699 -5.686623
RightArm -1.841756 -9.271194 31.702667
RightForeArm 34.721537 -0.000000 106.882108
RightHand 9.846365 -0.000000 22.048013
RightHandThumb1 -24.326973 -0.000000 -32.862282
LeftUpLeg 9.995929 12.840907 6.770234
LeftLeg -9.428593 -0.000000 0.000000
LeftFoot -16.324469 28.570109 -7.591075
LeftToeBase 22.904159 -0.000000 -0.000000
RightUpLeg 6.945832 -5.436899 4.524678
RightLeg -4.607198 -0.000000 0.000000
RightFoot -5.378873 -28.310277 5.245046
RightToeBase 13.345181 -0.000000 -0.000000
3680
root -5.261684 35.190409 -9.219536 0.997990 -3.747154 -6.419048
Spine -6.344144 -3.811030 6.490661
Head 11.705237 -11.027651 -4.369984
LeftShoulder -22.953456 13.040666 -11.274339
LeftArm 13.040127 -17.736326 -77.656498
LeftForeArm 14.964118 -0.000000 10.769133
LeftHand -0.115164 -0.000000 -3.533074
LeftHandThumb1 -26.253704 0.000000 33.147579
RightShoulder -14.859189 3.530910 -5.637039
RightArm -1.916777 -9.055166 31.828296
RightForeArm 34.789131 -0.000000 106.753233
RightHand 9.822006 -0.000000 22.055961
RightHandThumb1 -24.326973 -0.000000 -32.862282
LeftUpLeg 9.985204 12.868283 6.769801
LeftLeg -9.444497 -0.000000 0.000000
LeftFoot -16.327797 28.576801 -7.598503
LeftToeBase 22.908555 -0.000000 -0.000000
RightUpLeg 6.919920 -5.421208 4.530210
RightLeg -4.606242 -0.000000 0.000000
RightFoot -5.370957 -28.302625 5.254834
RightToeBase 13.304996 -0.000000 -0.000000
3681
root -5.259049 35.190688 -9.221984 1.030703 -3.765968 -6.426682
Spine -6.351380 -3.792282 6.508907
Head 11.667841 -11.006951 -4.373743
LeftShoulder -22.956333 13.035488 -11.276442
LeftArm 13.051964 -17.699088 -77.655468
LeftForeArm 14.895527 0.000000 10.798483
LeftHand -0.163216 -0.000000 -3.547663
LeftHandThumb1 -26.253704 0.000000 33.147579
RightShoulder -14.811649 3.579701 -5.584180
RightArm -2.049892 -8.731751 31.971548
RightForeArm 34.845385 -0.000000 106.639408
RightHand 9.774501 -0.000000 21.936009
RightHandThumb1 -24.326973 -0.000000 -32.862282
LeftUpLeg 9.957087 12.881522 6.772554
LeftLeg -9.443783 -0.000000 0.000000
LeftFoot -16.274325 28.551887 -7.492055
LeftToeBase 22.882756 -0.000000 -0.000000
RightUpLeg 6.883540 -5.381722 4.538608
RightLeg -4.610479 -0.000000 0.000000
RightFoot -5.356726 -28.314433 5.270866
RightToeBase 13.303879 -0.000000 -0.000000
3682
root -5.255968 35.190641 -9.224050 1.053886 -3.769434 -6.426030
Spine -6.347336 -3.766884 6.511277
Head 11.629507 -10.996137 -4.367757
LeftShoulder -22.943618 13.032719 -11.274479
LeftArm 13.073011 -17.672786 -77.657494
LeftForeArm 14.867563 0.000000 10.826110
LeftHand -0.208492 -0.000000 -3.532899
LeftHandThumb1 -26.253704 0.000000 33.147579
RightShoulder -14.793341 3.681487 -5.554922
RightArm -2.248083 -8.323226 32.160455
RightForeArm 34.988117 -0.000000 106.497428
RightHand 9.792077 -0.000000 21.888217
RightHandThumb1 -24.326973 -0.000000 -32.862282
LeftUpLeg 9.936029 12.887267 6.761226
LeftLeg -9.454078 -0.000000 0.000000
LeftFoot -16.268594 28.548838 -7.484750
LeftToeBase 22.888725 -0.000000 -0.000000
RightUpLeg 6.857729 -5.363745 4.536300
RightLeg -4.613793 -0.000000 0.000000
RightFoot -5.342196 -28.328875 5.258190
RightToeBase 13.277355 -0.000000 -0.000000
3683
root -5.253569 35.190814 -9.226158 1.081043 -3.771696 -6.428298
Spine -6.345209 -3.756619 6.518182
Head 11.587559 -10.990214 -4.355801
LeftShoulder -22.959629 13.031961 -11.280012
LeftArm 13.106272 -17.568141 -77.633124
LeftForeArm 14.788399 0.000000 10.836777
LeftHand -0.212943 0.000000 -3.541429
LeftHandThumb1 -26.253704 0.000000 33.147579
RightShoulder -14.777426 3.779964 -5.498008
RightArm -2.445632 -7.817974 32.302661
RightForeArm 35.107925 0.000000 106.374850
RightHand 9.811083 -0.000000 21.777692
RightHandThumb1 -24.326973 -0.000000 -32.862282
LeftUpLeg 9.907689 12.911495 6.746216
LeftLeg -9.471241 -0.000000 0.000000
LeftFoot -16.297170 28.582307 -7.557024
LeftToeBase 22.900648 -0.000000 -0.000000
RightUpLeg 6.831334 -5.337763 4.538213
RightLeg -4.623123 -0.000000 0.000000
RightFoot -5.342623 -28.336904 5.285262
RightToeBase 13.277309 -0.000000 -0.000000
3684
root -5.251668 35.191202 -9.227359 1.096941 -3.765301 -6.428542
Spine -6.337925 -3.731343 6.512049
Head 11.567782 -10.995042 -4.333274
LeftShoulder -22.951545 13.033991 -11.269132
LeftArm 13.237512 -17.840605 -77.715373
LeftForeArm 15.052311 -0.000000 10.675200
LeftHand -0.070780 -0.000000 -3.681345
LeftHandThumb1 -26.253704 0.000000 33.147579
RightShoulder -14.762071 3.878870 -5.421546
RightArm -2.702879 -7.169250 32.431524
RightForeArm 35.206879 0.000000 106.255178
RightHand 9.909867 -0.000000 21.682404
RightHandThumb1 -24.326973 -0.000000 -32.862282
LeftUpLeg 9.895051 12.910799 6.747767
LeftLeg -9.475942 -0.000000 0.000000
LeftFoot -16.251938 28.533994 -7.489954
LeftToeBase 22.886365 -0.000000 -0.000000
RightUpLeg 6.823167 -5.296760 4.539007
RightLeg -4.640855 -0.000000 0.000000
RightFoot -5.329150 -28.373911 5.298704
RightToeBase 13.265637 -0.000000 -0.000000
